<?xml version="1.0" standalone="no"?>
<!DOCTYPE svg PUBLIC "-//W3C//DTD SVG 20010904//EN"
 "http://www.w3.org/TR/2001/REC-SVG-20010904/DTD/svg10.dtd">
<svg version="1.0" xmlns="http://www.w3.org/2000/svg"
 width="500.000000pt" height="500.000000pt" viewBox="0 0 500.000000 500.000000"
 preserveAspectRatio="xMidYMid meet">

<g transform="translate(0.000000,500.000000) scale(0.100000,-0.100000)"
fill="#000000" stroke="none">
<path d="M2545 4036 c-120 -34 -149 -54 -316 -218 -140 -137 -191 -168 -307
-193 -81 -17 -172 -20 -172 -6 0 5 15 14 33 21 41 17 77 49 77 70 0 9 -10 26
-22 37 -41 37 -93 45 -270 42 -161 -4 -165 -5 -207 -32 -58 -38 -55 -70 11
-112 l46 -31 -69 -11 c-117 -18 -172 -70 -225 -210 -53 -141 -58 -206 -59
-743 0 -445 2 -501 18 -552 22 -73 56 -112 126 -147 l56 -28 410 -8 c369 -6
496 -3 481 13 -3 2 -202 8 -443 13 -280 5 -452 12 -478 19 -57 17 -120 85
-135 147 -17 71 -25 806 -11 975 19 217 52 339 115 421 51 67 83 74 422 86
415 14 416 15 645 236 124 121 155 146 204 164 100 38 152 44 300 38 238 -10
304 -38 413 -176 76 -96 116 -125 223 -164 70 -26 111 -46 92 -47 -21 0 -75
-53 -90 -88 -55 -132 131 -238 233 -131 41 42 41 110 1 162 -31 41 -29 43 36
23 69 -21 103 -50 136 -119 71 -147 95 -415 81 -913 -14 -503 -17 -542 -48
-571 -53 -49 -137 -65 -382 -70 -267 -6 -584 9 -731 36 -140 25 -262 68 -351
124 -151 94 -242 193 -309 332 -53 110 -69 180 -69 303 0 189 44 334 142 463
158 210 332 299 581 299 138 0 209 -15 315 -67 86 -42 209 -153 278 -249 51
-71 116 -207 133 -276 14 -60 14 -222 0 -290 -32 -149 -149 -318 -321 -464
-43 -36 -78 -70 -78 -76 0 -16 59 24 128 87 213 195 306 381 304 614 -1 115
-23 196 -88 321 -88 167 -198 276 -359 355 -111 54 -194 75 -302 75 -154 0
-271 -36 -409 -126 -378 -248 -467 -769 -190 -1120 109 -139 294 -256 478
-303 264 -68 875 -93 1089 -45 80 17 164 57 174 82 22 59 50 701 40 937 -17
420 -66 603 -177 661 -14 7 -78 27 -140 43 -63 16 -152 44 -198 62 -82 31 -90
37 -205 155 -127 129 -139 138 -220 161 -74 22 -375 27 -440 9z m-857 -276
c51 -6 107 -17 123 -26 30 -15 30 -16 13 -35 -26 -29 -99 -58 -175 -71 -155
-27 -377 54 -287 103 63 35 175 45 326 29z m1918 -173 c71 -71 69 -124 -6
-175 -60 -41 -147 -8 -170 64 -19 55 16 117 80 143 41 16 51 13 96 -32z"/>
<path d="M2500 3065 c0 -13 21 -15 131 -15 190 0 229 -25 229 -146 0 -57 0
-58 -56 -110 l-56 -52 20 -28 c11 -16 45 -68 75 -116 31 -48 68 -95 82 -104
34 -22 116 -36 130 -22 7 7 6 12 -3 15 -33 12 -88 73 -148 164 -35 54 -64 102
-64 107 0 5 17 21 38 35 102 67 95 219 -11 267 -36 17 -66 20 -204 20 -138 0
-163 -2 -163 -15z"/>
<path d="M2642 2788 c-7 -7 -12 -20 -12 -29 0 -43 72 -53 78 -11 6 42 -37 69
-66 40z"/>
<path d="M1567 1696 c-52 -19 -85 -52 -98 -97 -30 -99 40 -191 146 -191 61 0
126 36 110 62 -3 5 -22 -2 -42 -15 -85 -58 -186 1 -185 106 2 98 103 150 185
94 33 -22 57 -19 42 5 -21 35 -108 54 -158 36z"/>
<path d="M2473 1703 c-7 -3 -13 -12 -13 -22 0 -10 -22 -73 -50 -141 -27 -68
-50 -125 -50 -127 0 -2 7 -3 16 -3 9 0 21 14 27 30 11 29 13 30 83 30 70 0 72
-1 84 -30 7 -18 20 -30 31 -30 15 0 8 22 -47 147 -35 80 -65 147 -67 148 -1 1
-8 0 -14 -2z m67 -195 c0 -5 -25 -8 -55 -8 -30 0 -55 2 -55 4 0 2 7 21 16 42
9 22 21 50 26 64 10 24 12 23 39 -35 15 -33 28 -63 29 -67z"/>
<path d="M1930 1555 c0 -122 2 -145 15 -145 12 0 15 14 15 70 l0 70 90 0 90 0
0 -70 c0 -56 3 -70 15 -70 13 0 15 23 15 145 0 122 -2 145 -15 145 -12 0 -15
-13 -15 -60 l0 -60 -90 0 -90 0 0 60 c0 47 -3 60 -15 60 -13 0 -15 -23 -15
-145z"/>
<path d="M2816 1608 c-4 -51 -10 -117 -13 -147 -5 -43 -3 -53 8 -49 10 3 17
36 24 114 l10 109 50 -115 c28 -63 56 -115 64 -115 7 0 33 49 58 110 25 61 47
112 48 114 5 5 13 -52 20 -141 5 -61 10 -78 22 -78 16 0 16 30 -4 228 -9 99
-30 86 -88 -58 -27 -66 -51 -120 -55 -120 -3 0 -28 53 -56 117 -64 152 -79
157 -88 31z"/>
<path d="M3300 1690 c0 -6 37 -10 91 -10 76 0 90 -2 86 -15 -4 -8 -41 -63 -85
-122 -43 -59 -82 -114 -86 -120 -6 -10 20 -13 113 -13 100 0 121 3 121 15 0
11 -19 15 -90 17 l-90 3 90 125 c50 68 90 125 90 127 0 2 -54 3 -120 3 -73 0
-120 -4 -120 -10z"/>
<path d="M3774 1556 c-3 -8 -4 -25 -2 -38 2 -18 10 -24 35 -26 28 -3 33 1 39
23 4 15 1 31 -6 40 -16 19 -59 19 -66 1z"/>
<path d="M1945 1105 c-30 -30 -31 -45 -4 -79 17 -22 28 -26 60 -24 39 2 39 2
37 42 -1 37 -2 38 -5 9 -7 -53 -76 -58 -89 -6 -12 46 31 87 66 65 27 -17 39
-15 16 3 -28 21 -53 18 -81 -10z"/>
<path d="M2156 1078 c-29 -82 -30 -85 -13 -65 18 22 63 22 76 0 5 -10 12 -16
14 -13 6 6 -45 130 -53 130 -3 0 -14 -24 -24 -52z m32 -36 c-27 -5 -32 2 -18
29 l13 22 13 -24 c11 -22 11 -24 -8 -27z"/>
<path d="M2328 1124 c-5 -4 -8 -34 -8 -66 l0 -58 43 2 c36 1 37 2 10 5 -32 4
-32 5 -35 65 -2 33 -6 56 -10 52z"/>
<path d="M2482 1068 l-2 -68 38 2 c36 1 36 1 5 5 -32 4 -32 5 -36 66 l-3 62
-2 -67z"/>
<path d="M2640 1065 l0 -65 38 2 c36 1 36 1 5 5 -27 4 -33 9 -33 28 0 14 7 25
18 28 16 4 16 5 0 6 -12 1 -18 9 -18 25 0 19 6 26 28 29 25 4 25 4 -5 6 l-33
1 0 -65z"/>
<path d="M2800 1065 c0 -37 4 -65 10 -65 6 0 10 14 10 30 0 20 5 30 15 30 8 0
21 -13 30 -30 9 -16 20 -30 26 -30 6 0 0 14 -12 32 -16 21 -19 33 -11 36 18 6
15 49 -4 56 -9 3 -27 6 -40 6 -23 0 -24 -3 -24 -65z m65 30 c0 -13 -8 -21 -22
-23 -19 -3 -23 1 -23 23 0 22 4 26 23 23 14 -2 22 -10 22 -23z"/>
<path d="M2980 1125 c0 -6 8 -21 17 -35 9 -13 20 -40 24 -59 l7 -36 1 33 c0
19 10 47 22 64 12 16 19 31 16 34 -2 2 -12 -8 -22 -23 l-18 -27 -23 30 c-13
16 -24 24 -24 19z"/>
</g>
</svg>
