<?xml version="1.0" standalone="no"?>
<!DOCTYPE svg PUBLIC "-//W3C//DTD SVG 20010904//EN"
 "http://www.w3.org/TR/2001/REC-SVG-20010904/DTD/svg10.dtd">
<svg version="1.0" xmlns="http://www.w3.org/2000/svg"
 width="500.000000pt" height="500.000000pt" viewBox="0 0 500.000000 500.000000"
 preserveAspectRatio="xMidYMid meet">

<g transform="translate(0.000000,500.000000) scale(0.100000,-0.100000)"
fill="#000000" stroke="none">
<path d="M0 2500 l0 -2500 2500 0 2500 0 0 2500 0 2500 -2500 0 -2500 0 0
-2500z m1965 581 c3 -6 -31 -146 -75 -313 -45 -167 -85 -317 -90 -335 l-8 -32
51 40 c70 56 119 79 166 79 49 0 63 -20 71 -100 l5 -55 48 2 c51 1 120 35 214
104 82 61 99 66 126 41 22 -21 23 -21 35 -2 13 21 37 26 47 11 3 -6 0 -30 -6
-55 -22 -87 10 -121 90 -97 51 15 148 86 166 122 10 18 23 29 37 29 18 0 20
-4 14 -39 -3 -22 -9 -47 -13 -57 -3 -9 25 8 62 39 60 49 75 57 111 57 61 0 78
-20 70 -84 l-6 -50 33 40 c60 73 89 94 129 94 45 0 68 -27 68 -83 0 -105 69
-103 215 7 109 82 106 81 237 81 98 0 120 -3 135 -18 17 -16 16 -18 -2 -36
-11 -11 -65 -38 -120 -61 -55 -24 -104 -47 -110 -52 -7 -7 44 -8 154 -4 186 7
218 16 291 85 44 41 69 48 77 24 6 -18 -84 -105 -131 -127 -55 -26 -145 -35
-342 -36 -143 0 -174 3 -184 16 -20 23 9 46 130 100 58 25 107 48 109 50 2 2
-25 4 -60 4 -61 0 -68 -3 -124 -44 -145 -109 -239 -145 -290 -112 -24 16 -45
69 -45 118 0 62 -39 44 -109 -51 -54 -73 -71 -85 -104 -75 -18 6 -19 12 -13
80 6 61 4 75 -8 80 -23 9 -76 -28 -144 -101 -33 -36 -64 -65 -69 -65 -24 1
-35 20 -31 53 l4 35 -41 -28 c-55 -38 -137 -64 -177 -56 -35 7 -68 32 -68 53
0 20 -11 16 -45 -16 -42 -41 -78 -48 -104 -22 -12 12 -21 31 -21 44 0 23 -1
23 -80 -17 -140 -69 -220 -52 -220 49 0 106 -36 100 -186 -30 -41 -36 -78 -65
-82 -65 -20 0 -29 25 -24 63 l5 41 -37 -23 c-146 -91 -293 -104 -331 -31 -8
16 -15 38 -15 50 0 29 33 90 63 119 34 31 106 40 130 16 23 -22 21 -39 -6 -71
-30 -34 -61 -28 -51 11 8 34 -10 32 -47 -4 -17 -17 -29 -40 -29 -55 0 -83 140
-73 286 23 l59 38 78 294 c72 274 89 319 118 319 4 0 10 -4 14 -9z m-450 -234
c0 -18 -767 -885 -792 -894 -8 -3 -19 -1 -24 4 -7 7 7 29 41 67 l52 56 -135 0
c-121 0 -137 2 -161 21 l-26 20 0 302 c0 381 -20 347 207 347 l163 0 10 28
c21 58 17 57 165 60 151 3 161 0 171 -54 l6 -34 108 0 107 0 42 50 c42 50 66
60 66 27z m-785 -32 c0 -24 -2 -25 -75 -25 -73 0 -75 1 -75 25 0 24 2 25 75
25 73 0 75 -1 75 -25z m2608 -731 c31 -22 30 -69 -3 -90 -23 -15 -27 -15 -50
0 -33 21 -34 68 -3 90 12 9 25 16 28 16 3 0 16 -7 28 -16z m262 -4 c27 -27 25
-55 -6 -79 -55 -43 -114 29 -64 79 11 11 27 20 35 20 8 0 24 -9 35 -20z m185
7 c10 -8 15 -19 11 -25 -10 -17 -26 -15 -26 4 0 9 -7 14 -17 12 -26 -5 -25
-71 1 -76 14 -3 17 0 13 12 -4 10 -1 19 9 23 20 7 24 1 18 -24 -7 -27 -27 -35
-58 -23 -44 16 -46 83 -3 100 30 12 31 12 52 -3z m-707 -9 c16 -16 -3 -48 -30
-48 -15 0 -19 -5 -15 -20 4 -14 0 -20 -11 -20 -14 0 -17 10 -17 50 0 49 1 50
31 50 16 0 35 -5 42 -12z m75 -8 c-4 -16 0 -20 17 -20 17 0 21 4 17 20 -4 16
0 20 21 19 15 0 21 -3 15 -6 -7 -2 -13 -22 -13 -43 0 -21 6 -41 13 -43 6 -3 0
-6 -15 -6 -21 -1 -25 3 -21 19 4 16 0 20 -17 20 -17 0 -21 -4 -17 -20 4 -16 0
-20 -21 -19 -15 0 -21 3 -14 6 6 2 12 22 12 43 0 21 -6 41 -12 43 -7 3 -1 6
14 6 21 1 25 -3 21 -19z m326 3 c0 -11 -3 -13 -6 -5 -11 29 -25 9 -21 -33 3
-42 2 -45 -22 -44 -14 0 -19 3 -12 6 14 6 17 83 2 83 -5 0 -10 -4 -10 -10 0
-5 -4 -10 -10 -10 -5 0 -10 7 -10 15 0 11 12 15 45 15 36 0 45 -3 44 -17z
m429 -28 c9 -22 20 -43 26 -47 6 -4 -1 -8 -16 -8 -20 0 -26 4 -22 15 4 11 0
15 -16 15 -16 0 -20 -4 -16 -15 4 -10 -1 -15 -15 -15 -19 0 -19 0 1 40 11 23
18 45 14 51 -4 7 1 10 11 7 9 -1 24 -21 33 -43z m84 0 c-4 -40 -2 -45 16 -45
11 0 23 6 25 13 3 7 6 5 6 -5 1 -14 -7 -18 -36 -18 l-38 0 0 50 c0 38 4 50 15
50 12 0 14 -10 12 -45z m120 0 c-3 -35 -1 -45 11 -45 9 0 17 6 20 13 2 6 8 9
12 5 15 -14 -7 -28 -43 -28 l-37 0 0 50 c0 43 3 50 20 50 18 0 20 -5 17 -45z
m148 28 c0 -13 -3 -14 -12 -5 -7 7 -16 12 -20 12 -13 0 -9 -28 5 -34 10 -5 10
-7 0 -12 -7 -3 -13 -12 -13 -20 0 -17 27 -19 33 -1 2 6 8 9 12 5 15 -14 -7
-28 -43 -28 l-37 0 0 50 0 50 38 0 c28 0 37 -4 37 -17z m118 5 c9 -9 8 -15 -3
-28 -13 -15 -13 -19 5 -38 18 -19 18 -22 4 -22 -8 0 -25 10 -36 23 l-20 22 5
-22 c4 -17 1 -23 -11 -23 -14 0 -17 10 -17 50 0 49 1 50 31 50 16 0 35 -5 42
-12z m83 -9 c9 -17 13 -19 19 -8 5 7 6 17 4 21 -3 4 4 8 16 8 19 0 20 -1 6
-16 -19 -18 -30 -59 -21 -73 4 -7 -5 -11 -22 -11 -22 0 -25 2 -13 10 13 8 12
15 -7 50 -16 30 -18 40 -8 40 8 0 19 -10 26 -21z"/>
<path d="M2404 2446 c-18 -28 -29 -86 -17 -86 11 0 54 45 76 80 16 25 15 25
-14 26 -21 1 -35 -6 -45 -20z"/>
<path d="M897 2823 c-2 -4 -10 -25 -16 -45 l-13 -38 -158 0 c-87 0 -170 -4
-184 -10 -25 -9 -26 -14 -26 -80 l0 -70 148 0 148 0 21 28 c11 15 44 41 74 57
47 26 64 30 129 30 85 0 141 -24 191 -78 l29 -31 64 69 c36 39 65 73 66 77 0
4 -46 9 -102 10 l-101 3 -11 40 -12 40 -121 3 c-67 1 -123 -1 -126 -5z m-242
-158 c0 -30 -1 -30 -57 -33 l-58 -3 0 36 0 36 58 -3 c56 -3 57 -3 57 -33z"/>
<path d="M915 2639 c-56 -28 -90 -64 -115 -122 -41 -94 -9 -217 72 -281 24
-18 36 -22 45 -14 19 15 16 21 -21 45 -72 47 -99 176 -53 258 12 21 42 53 65
70 38 26 52 30 110 30 72 0 112 -19 158 -73 l22 -25 7 24 c6 19 1 29 -26 52
-19 16 -48 35 -66 43 -48 21 -150 17 -198 -7z"/>
<path d="M947 2558 c-41 -24 -77 -86 -77 -134 0 -29 34 -114 45 -114 3 0 -2
14 -11 32 -36 69 -2 175 70 219 43 26 20 23 -27 -3z"/>
<path d="M500 2205 c0 -72 1 -76 26 -85 14 -6 85 -10 158 -10 l132 0 34 35 34
35 -49 50 -49 50 -143 0 -143 0 0 -75z"/>
<path d="M3284 2066 c-11 -29 1 -61 23 -64 24 -4 38 25 28 58 -7 23 -43 27
-51 6z"/>
<path d="M3537 2061 c-9 -36 3 -62 27 -59 17 2 21 10 21 38 0 28 -4 36 -21 38
-15 2 -23 -3 -27 -17z"/>
<path d="M3030 2060 c0 -11 7 -20 15 -20 8 0 15 9 15 20 0 11 -7 20 -15 20 -8
0 -15 -9 -15 -20z"/>
<path d="M3870 2046 c0 -9 5 -16 10 -16 6 0 10 4 10 9 0 6 -4 13 -10 16 -5 3
-10 -1 -10 -9z"/>
<path d="M4330 2059 c0 -24 23 -21 28 4 2 10 -3 17 -12 17 -10 0 -16 -9 -16
-21z"/>
</g>
</svg>
