<?xml version="1.0" standalone="no"?>
<!DOCTYPE svg PUBLIC "-//W3C//DTD SVG 20010904//EN"
 "http://www.w3.org/TR/2001/REC-SVG-20010904/DTD/svg10.dtd">
<svg version="1.0" xmlns="http://www.w3.org/2000/svg"
 width="500.000000pt" height="500.000000pt" viewBox="0 0 500.000000 500.000000"
 preserveAspectRatio="xMidYMid meet">

<g transform="translate(0.000000,500.000000) scale(0.100000,-0.100000)"
fill="#000000" stroke="none">
<path d="M2545 4036 c-120 -34 -149 -54 -316 -218 -140 -137 -191 -168 -307
-193 -81 -17 -172 -20 -172 -6 0 5 15 14 33 21 41 17 77 49 77 70 0 9 -10 26
-22 37 -41 37 -93 45 -270 42 -161 -4 -165 -5 -207 -32 -58 -38 -55 -70 11
-112 l46 -31 -69 -11 c-117 -18 -172 -70 -225 -210 -53 -141 -58 -206 -59
-743 0 -445 2 -501 18 -552 22 -73 56 -112 126 -147 l56 -28 410 -8 c369 -6
496 -3 481 13 -3 2 -202 8 -443 13 -280 5 -452 12 -478 19 -57 17 -120 85
-135 147 -17 71 -25 806 -11 975 19 217 52 339 115 421 51 67 83 74 422 86
415 14 416 15 645 236 124 121 155 146 204 164 100 38 152 44 300 38 238 -10
304 -38 413 -176 76 -96 116 -125 223 -164 70 -26 111 -46 92 -47 -21 0 -75
-53 -90 -88 -55 -132 131 -238 233 -131 41 42 41 110 1 162 -31 41 -29 43 36
23 69 -21 103 -50 136 -119 71 -147 95 -415 81 -913 -14 -503 -17 -542 -48
-571 -53 -49 -137 -65 -382 -70 -267 -6 -584 9 -731 36 -140 25 -262 68 -351
124 -151 94 -242 193 -309 332 -53 110 -69 180 -69 303 0 189 44 334 142 463
158 210 332 299 581 299 138 0 209 -15 315 -67 86 -42 209 -153 278 -249 51
-71 116 -207 133 -276 14 -60 14 -222 0 -290 -32 -149 -149 -318 -321 -464
-43 -36 -78 -70 -78 -76 0 -16 59 24 128 87 213 195 306 381 304 614 -1 115
-23 196 -88 321 -88 167 -198 276 -359 355 -111 54 -194 75 -302 75 -154 0
-271 -36 -409 -126 -378 -248 -467 -769 -190 -1120 109 -139 294 -256 478
-303 264 -68 875 -93 1089 -45 80 17 164 57 174 82 22 59 50 701 40 937 -17
420 -66 603 -177 661 -14 7 -78 27 -140 43 -63 16 -152 44 -198 62 -82 31 -90
37 -205 155 -127 129 -139 138 -220 161 -74 22 -375 27 -440 9z m-857 -276
c51 -6 107 -17 123 -26 30 -15 30 -16 13 -35 -26 -29 -99 -58 -175 -71 -155
-27 -377 54 -287 103 63 35 175 45 326 29z m1918 -173 c71 -71 69 -124 -6
-175 -60 -41 -147 -8 -170 64 -19 55 16 117 80 143 41 16 51 13 96 -32z"/>
<path d="M2500 3065 c0 -13 21 -15 131 -15 190 0 229 -25 229 -146 0 -57 0
-58 -56 -110 l-56 -52 20 -28 c11 -16 45 -68 75 -116 31 -48 68 -95 82 -104
34 -22 116 -36 130 -22 7 7 6 12 -3 15 -33 12 -88 73 -148 164 -35 54 -64 102
-64 107 0 5 17 21 38 35 102 67 95 219 -11 267 -36 17 -66 20 -204 20 -138 0
-163 -2 -163 -15z"/>
<path d="M2642 2788 c-7 -7 -12 -20 -12 -29 0 -43 72 -53 78 -11 6 42 -37 69
-66 40z"/>
<path d="M1520 1798 c-55 -29 -81 -64 -87 -119 -9 -88 59 -159 151 -159 51 0
116 25 124 48 4 14 -39 37 -47 25 -10 -16 -48 -33 -71 -33 -88 0 -134 117 -71
181 36 35 95 40 132 10 22 -17 27 -17 44 -4 20 14 20 15 -3 33 -23 19 -82 40
-112 40 -9 0 -36 -10 -60 -22z"/>
<path d="M2458 1806 c-10 -7 -18 -23 -18 -34 0 -12 -9 -45 -21 -74 -11 -29
-31 -81 -44 -115 l-24 -63 28 0 c20 0 31 7 39 26 11 23 17 25 65 22 43 -2 54
-7 62 -25 7 -16 18 -23 37 -23 16 0 28 3 28 7 0 12 -125 293 -130 293 -3 -1
-13 -7 -22 -14z m37 -146 c21 -41 19 -50 -15 -50 -16 0 -30 4 -30 9 0 12 21
71 26 71 2 0 10 -13 19 -30z"/>
<path d="M1900 1665 l0 -145 30 0 30 0 0 70 0 71 73 -3 72 -3 3 -67 c3 -65 4
-68 27 -68 l25 0 0 145 0 145 -25 0 c-24 0 -25 -3 -25 -55 l0 -55 -75 0 -75 0
0 55 c0 54 0 55 -30 55 l-30 0 0 -145z"/>
<path d="M2817 1768 c-4 -24 -9 -79 -12 -123 -3 -44 -8 -90 -11 -102 -4 -19 0
-23 20 -23 23 0 25 4 31 85 4 47 10 83 14 80 3 -4 22 -43 42 -88 30 -68 40
-82 59 -82 19 0 28 14 59 93 38 95 51 106 51 42 0 -21 3 -58 6 -84 6 -41 10
-46 32 -46 l25 0 -7 98 c-13 183 -15 192 -45 192 -25 0 -31 -9 -72 -111 l-46
-111 -48 111 c-41 93 -52 111 -71 111 -18 0 -23 -7 -27 -42z"/>
<path d="M3320 1790 c0 -17 8 -19 80 -22 l80 -3 -80 -113 c-44 -62 -80 -117
-80 -122 0 -6 52 -10 125 -10 118 0 125 1 125 20 0 18 -7 20 -80 20 -44 0 -80
3 -80 6 0 3 36 57 80 119 44 62 80 116 80 119 0 3 -56 6 -125 6 -117 0 -125
-1 -125 -20z"/>
<path d="M3774 1556 c-3 -8 -4 -25 -2 -38 2 -18 10 -24 35 -26 28 -3 33 1 39
23 4 15 1 31 -6 40 -16 19 -59 19 -66 1z"/>
<path d="M2259 1335 c-35 -19 -53 -63 -40 -98 15 -38 51 -58 104 -56 l47 2 0
49 c0 36 -4 48 -15 48 -10 0 -15 -10 -15 -34 0 -42 -28 -56 -65 -32 -46 30
-25 106 29 106 12 0 27 -5 34 -12 9 -9 15 -9 23 -1 8 8 4 15 -12 27 -28 19
-55 20 -90 1z"/>
<path d="M2544 1342 c-6 -4 -13 -18 -16 -32 -3 -14 -15 -49 -26 -77 -21 -51
-21 -53 -3 -53 10 0 21 7 25 15 3 8 17 15 31 15 14 0 28 -7 31 -15 4 -8 15
-15 25 -15 21 0 20 2 -28 107 -17 39 -32 60 -39 55z m26 -104 c0 -5 -7 -8 -15
-8 -15 0 -20 21 -8 33 7 7 23 -11 23 -25z"/>
<path d="M2740 1260 l0 -80 50 0 c55 0 69 17 18 22 l-33 3 -3 68 c-2 51 -6 67
-17 67 -12 0 -15 -17 -15 -80z"/>
<path d="M2950 1260 l0 -80 55 0 c62 0 75 17 18 22 l-38 3 -3 68 c-2 51 -6 67
-17 67 -12 0 -15 -17 -15 -80z"/>
<path d="M3170 1260 l0 -80 50 0 c28 0 50 5 50 10 0 6 -16 10 -35 10 -32 0
-35 2 -35 30 0 23 4 30 20 30 11 0 20 5 20 10 0 6 -9 10 -20 10 -13 0 -20 7
-20 20 0 16 7 20 30 20 17 0 30 5 30 10 0 6 -20 10 -45 10 l-45 0 0 -80z"/>
<path d="M3390 1260 c0 -64 3 -80 15 -80 11 0 15 11 15 40 0 28 4 40 14 40 8
0 25 -18 37 -40 14 -24 30 -40 41 -40 17 0 16 4 -7 40 -22 34 -23 40 -9 48 10
6 14 19 12 38 -3 28 -5 29 -60 32 l-58 3 0 -81z m90 40 c0 -16 -7 -20 -30 -20
-23 0 -30 4 -30 20 0 16 7 20 30 20 23 0 30 -4 30 -20z"/>
<path d="M3654 1296 c15 -26 26 -60 26 -80 0 -25 4 -36 15 -36 11 0 15 11 15
43 0 29 8 54 25 80 19 27 22 37 11 37 -8 0 -23 -12 -34 -27 l-20 -28 -13 28
c-7 16 -20 27 -32 27 -18 0 -17 -3 7 -44z"/>
</g>
</svg>
